<svg width="39" height="46" viewBox="0 0 39 46" fill="none" xmlns="http://www.w3.org/2000/svg">
<path d="M21.5016 6.01855H17.7636C17.4196 6.01855 17.1406 6.35542 17.1406 6.7709V9.78026C17.1406 10.1957 17.4196 10.5326 17.7636 10.5326H21.5016C21.8457 10.5326 22.1246 10.1957 22.1246 9.78026V6.7709C22.1246 6.35542 21.8457 6.01855 21.5016 6.01855ZM20.8786 9.02792H18.3866V7.52324H20.8786V9.02792Z" fill="#F59F00"/>
<path d="M37.6992 14.2946C38.0432 14.2946 38.3222 13.9578 38.3222 13.5423C38.3222 13.1268 38.0432 12.79 37.6992 12.79H35.8302V12.0376C35.8302 11.6221 35.5513 11.2853 35.2072 11.2853C34.8632 11.2853 34.5842 11.6221 34.5842 12.0376V12.79H32.0922V12.0376C32.0922 11.6221 31.8133 11.2853 31.4692 11.2853C31.1252 11.2853 30.8462 11.6221 30.8462 12.0376V12.79H28.9772C28.6332 12.79 28.3542 13.1268 28.3542 13.5423C28.3542 13.9578 28.6332 14.2946 28.9772 14.2946H30.8462V15.7993H28.9772C28.6332 15.7993 28.3542 16.1362 28.3542 16.5517C28.3542 16.9671 28.6332 17.304 28.9772 17.304H30.8462V18.0564H27.1082V9.93605C27.3194 10.077 27.5524 10.1474 27.785 10.1474C28.1833 10.1474 28.5793 9.94386 28.8561 9.54878L29.4597 8.68735C29.959 7.97488 29.8852 6.90468 29.2951 6.30158L25.0506 1.96453C24.9827 1.89512 24.9031 1.84406 24.8173 1.81481L19.8013 0.106338C19.6907 0.0687207 19.5737 0.0687207 19.4631 0.106338L14.4471 1.81481C14.3613 1.84406 14.2818 1.89512 14.2138 1.96453L9.96922 6.30168C9.37924 6.90468 9.30549 7.97488 9.80467 8.68735L10.4083 9.54878C10.8468 10.1745 11.5836 10.3191 12.1562 9.93671V18.0564H8.41819V17.304H10.2872C10.6312 17.304 10.9102 16.9671 10.9102 16.5517C10.9102 16.1362 10.6312 15.7993 10.2872 15.7993H8.41819V14.2946H10.2872C10.6312 14.2946 10.9102 13.9578 10.9102 13.5423C10.9102 13.1268 10.6312 12.79 10.2872 12.79H8.41819V12.0376C8.41819 11.6221 8.13924 11.2853 7.79519 11.2853C7.45114 11.2853 7.17219 11.6221 7.17219 12.0376V12.79H4.68036V12.0376C4.68036 11.6221 4.40142 11.2853 4.05737 11.2853C3.71332 11.2853 3.43437 11.6221 3.43437 12.0376V12.79H1.56538C1.22133 12.79 0.942383 13.1268 0.942383 13.5423C0.942383 13.9578 1.22133 14.2946 1.56538 14.2946H3.43437V15.7993H1.56538C1.22133 15.7993 0.942383 16.1362 0.942383 16.5517C0.942383 16.9671 1.22133 17.304 1.56538 17.304H3.43437V18.0564H1.56538C1.22133 18.0564 0.942383 18.3932 0.942383 18.8087V44.3883C0.942383 44.8038 1.22133 45.1406 1.56538 45.1406H13.402C13.4023 45.1406 13.4027 45.1407 13.403 45.1407C13.4036 45.1407 13.4041 45.1406 13.4047 45.1406H25.8598C25.8603 45.1406 25.8609 45.1407 25.8614 45.1407C25.8617 45.1407 25.8621 45.1406 25.8624 45.1406H37.6992C38.0432 45.1406 38.3222 44.8038 38.3222 44.3883V18.8087C38.3222 18.3932 38.0432 18.0564 37.6992 18.0564H35.8302V17.304H37.6992C38.0432 17.304 38.3222 16.9671 38.3222 16.5517C38.3222 16.1362 38.0432 15.7993 37.6992 15.7993H35.8302V14.2946H37.6992ZM32.0922 14.2946H34.5842V15.7993H32.0922V14.2946ZM32.0922 17.304H34.5842V18.0564H32.0922V17.304ZM11.579 8.59886C11.5135 8.66591 11.415 8.65585 11.3595 8.57676L10.7559 7.71533C10.7005 7.63614 10.7087 7.51727 10.7742 7.45031L14.9155 3.21868L19.6323 1.61205L24.3491 3.21859L28.4903 7.45013C28.5559 7.51718 28.5641 7.63614 28.5087 7.71523L27.9051 8.57666C27.8496 8.65594 27.751 8.66572 27.6855 8.59876L23.8539 4.68358C23.7859 4.61418 23.7063 4.56311 23.6206 4.53387L19.8014 3.23297C19.6908 3.19536 19.5737 3.19536 19.4631 3.23297L15.644 4.53387C15.5583 4.56311 15.4787 4.61418 15.4107 4.68358L11.579 8.59886ZM22.7473 12.0376H16.5173C16.1733 12.0376 15.8943 12.3745 15.8943 12.79V18.0564H13.4023V8.70691L16.1124 5.93773L19.6323 4.73878L23.1522 5.93773L25.8623 8.70691V18.0564H23.3703V12.79C23.3703 12.3745 23.0913 12.0376 22.7473 12.0376ZM18.635 15.7993L17.1403 17.2434V14.3553L18.635 15.7993ZM18.2933 13.5423H20.9712L19.6323 14.8359L18.2933 13.5423ZM19.6323 16.7628L20.9713 18.0564H18.2934L19.6323 16.7628ZM20.6295 15.7993L22.1243 14.3553V17.2434L20.6295 15.7993ZM4.68036 14.2946H7.17235V15.7993H4.68036V14.2946ZM4.68036 17.304H7.17235V18.0564H4.68036V17.304ZM2.18838 19.561H9.35704L2.18838 40.5852V19.561ZM12.8642 43.6359H2.49567L10.7046 19.561H15.796L12.8642 43.6359ZM14.1237 43.6359L17.0554 19.561H22.2092L25.141 43.6359H14.1237ZM26.4004 43.6359L23.4686 19.561H29.1715L36.794 43.6359H26.4004ZM37.0762 19.561V40.314L30.5054 19.561H37.0762Z" fill="#F59F00"/>
<path d="M31.4696 6.77107H36.1421C37.3444 6.77107 38.3225 5.5898 38.3225 4.13788C38.3225 2.68595 37.3444 1.50468 36.1421 1.50468H36.1197C35.6803 0.58692 34.8609 0 33.9616 0C32.8025 0 31.8258 0.960551 31.5484 2.25702H31.4696C30.439 2.25702 29.6006 3.26958 29.6006 4.51405C29.6006 5.75851 30.439 6.77107 31.4696 6.77107ZM31.4696 3.76171H32.0926C32.4366 3.76171 32.7156 3.42484 32.7156 3.00936C32.7156 2.17972 33.2746 1.50468 33.9616 1.50468C34.4886 1.50468 34.9608 1.90784 35.1364 2.50783C35.2244 2.8084 35.4597 3.00936 35.7237 3.00936H36.1421C36.6573 3.00936 37.0765 3.5156 37.0765 4.13788C37.0765 4.76016 36.6573 5.26639 36.1421 5.26639H31.4696C31.1261 5.26639 30.8466 4.92887 30.8466 4.51405C30.8466 4.09922 31.1261 3.76171 31.4696 3.76171Z" fill="#F59F00"/>
<path d="M5.30317 3.00936C5.64722 3.00936 5.92617 2.6725 5.92617 2.25702C5.92617 1.8422 6.20566 1.50468 6.54917 1.50468C6.89267 1.50468 7.17216 1.8422 7.17216 2.25702C7.17216 2.6725 7.45111 3.00936 7.79516 3.00936C8.13921 3.00936 8.41816 2.6725 8.41816 2.25702C8.41816 1.8422 8.69765 1.50468 9.04115 1.50468C9.38466 1.50468 9.66415 1.8422 9.66415 2.25702C9.66415 2.6725 9.9431 3.00936 10.2871 3.00936C10.6312 3.00936 10.9101 2.6725 10.9101 2.25702C10.9101 1.01256 10.0717 0 9.04115 0C8.56293 0 8.12605 0.217991 7.79516 0.576105C7.46427 0.217991 7.02739 0 6.54917 0C5.51865 0 4.68018 1.01256 4.68018 2.25702C4.68018 2.6725 4.95912 3.00936 5.30317 3.00936Z" fill="#F59F00"/>
<path d="M1.56538 6.77108C1.90943 6.77108 2.18838 6.43422 2.18838 6.01874C2.18838 5.60392 2.46787 5.2664 2.81137 5.2664C3.15488 5.2664 3.43437 5.60392 3.43437 6.01874C3.43437 6.43422 3.71332 6.77108 4.05737 6.77108C4.40142 6.77108 4.68036 6.43422 4.68036 6.01874C4.68036 5.60392 4.95986 5.2664 5.30336 5.2664C5.64687 5.2664 5.92636 5.60392 5.92636 6.01874C5.92636 6.43422 6.2053 6.77108 6.54935 6.77108C6.8934 6.77108 7.17235 6.43422 7.17235 6.01874C7.17235 4.77428 6.33388 3.76172 5.30336 3.76172C4.82513 3.76172 4.38826 3.97971 4.05737 4.33782C3.72648 3.97971 3.2896 3.76172 2.81137 3.76172C1.78086 3.76172 0.942383 4.77428 0.942383 6.01874C0.942383 6.43422 1.22133 6.77108 1.56538 6.77108Z" fill="#F59F00"/>
<path d="M21.3047 22.6093C21.2829 22.6181 20.7747 22.8256 20.2557 23.2347V22.5707C20.2557 22.1552 19.9768 21.8184 19.6327 21.8184C19.2887 21.8184 19.0097 22.1552 19.0097 22.5707V23.2347C18.4908 22.8256 17.9826 22.6181 17.9608 22.6093C17.6342 22.4782 17.2815 22.691 17.1728 23.0851C17.064 23.4793 17.2404 23.9054 17.5668 24.0368C17.8716 24.1596 19.0098 24.781 19.0098 25.5801C19.0098 25.9955 19.2888 26.3324 19.6328 26.3324C19.9769 26.3324 20.2558 25.9955 20.2558 25.5801C20.2558 24.8028 21.3245 24.1902 21.6997 24.0364C22.0256 23.9046 22.2015 23.479 22.0928 23.0851C21.9839 22.691 21.6311 22.4783 21.3047 22.6093Z" fill="#F59F00"/>
<path d="M21.3047 27.8749C21.2829 27.8837 20.7747 28.0912 20.2557 28.5004V27.8363C20.2557 27.4208 19.9768 27.084 19.6327 27.084C19.2887 27.084 19.0097 27.4208 19.0097 27.8363V28.5004C18.4908 28.0912 17.9826 27.8837 17.9608 27.8749C17.6342 27.7436 17.2815 27.9566 17.1728 28.3507C17.064 28.745 17.2404 29.1711 17.5668 29.3024C17.8716 29.4252 19.0098 30.0466 19.0098 30.8457C19.0098 31.2612 19.2888 31.598 19.6328 31.598C19.9769 31.598 20.2558 31.2612 20.2558 30.8457C20.2558 30.0684 21.3245 29.4558 21.6997 29.3021C22.0256 29.1702 22.2015 28.7446 22.0928 28.3507C21.9839 27.9566 21.6311 27.7436 21.3047 27.8749Z" fill="#F59F00"/>
<path d="M21.3047 33.1415C21.2829 33.1503 20.7747 33.3578 20.2557 33.767V33.1029C20.2557 32.6874 19.9768 32.3506 19.6327 32.3506C19.2887 32.3506 19.0097 32.6874 19.0097 33.1029V33.767C18.4908 33.3578 17.9826 33.1503 17.9608 33.1415C17.6342 33.0102 17.2815 33.2232 17.1728 33.6173C17.064 34.0116 17.2404 34.4377 17.5668 34.5691C17.8716 34.6918 19.0098 35.3132 19.0098 36.1123C19.0098 36.5278 19.2888 36.8646 19.6328 36.8646C19.9769 36.8646 20.2558 36.5278 20.2558 36.1123C20.2558 35.335 21.3245 34.7224 21.6997 34.5687C22.0256 34.4368 22.2015 34.0112 22.0928 33.6173C21.9839 33.2232 21.6311 33.0102 21.3047 33.1415Z" fill="#F59F00"/>
<path d="M21.3047 38.4081C21.2829 38.4169 20.7747 38.6244 20.2557 39.0336V38.3695C20.2557 37.954 19.9768 37.6172 19.6327 37.6172C19.2887 37.6172 19.0097 37.954 19.0097 38.3695V39.0336C18.4908 38.6244 17.9826 38.4169 17.9608 38.4081C17.6342 38.2768 17.2815 38.4898 17.1728 38.8839C17.064 39.2782 17.2404 39.7043 17.5668 39.8357C17.8716 39.9584 19.0098 40.5798 19.0098 41.3789C19.0098 41.7944 19.2888 42.1312 19.6328 42.1312C19.9769 42.1312 20.2558 41.7944 20.2558 41.3789C20.2558 40.6016 21.3245 39.989 21.6997 39.8353C22.0256 39.7034 22.2015 39.2778 22.0928 38.8839C21.9839 38.4898 21.6311 38.2768 21.3047 38.4081Z" fill="#F59F00"/>
<path d="M28.7803 22.6093C28.7585 22.6181 28.2503 22.8256 27.7313 23.2347V22.5707C27.7313 22.1552 27.4524 21.8184 27.1083 21.8184C26.7643 21.8184 26.4853 22.1552 26.4853 22.5707V23.2347C25.9664 22.8256 25.4582 22.6181 25.4364 22.6093C25.1098 22.4782 24.7571 22.691 24.6483 23.0851C24.5396 23.4793 24.7159 23.9054 25.0424 24.0368C25.3472 24.1596 26.4854 24.781 26.4854 25.5801C26.4854 25.9955 26.7644 26.3324 27.1084 26.3324C27.4525 26.3324 27.7314 25.9955 27.7314 25.5801C27.7314 24.8028 28.8001 24.1902 29.1753 24.0364C29.5012 23.9046 29.6771 23.479 29.5684 23.0851C29.4595 22.691 29.1066 22.4783 28.7803 22.6093Z" fill="#F59F00"/>
<path d="M28.9774 27.8363C28.9774 27.4208 28.6985 27.084 28.3544 27.084C28.0104 27.084 27.7314 27.4208 27.7314 27.8363V28.5004C27.2125 28.0912 26.7043 27.8837 26.6825 27.8749C26.3559 27.7436 26.0032 27.9566 25.8944 28.3507C25.7856 28.745 25.962 29.1711 26.2885 29.3024C26.5933 29.4252 27.7315 30.0466 27.7315 30.8457C27.7315 31.2612 28.0104 31.598 28.3545 31.598C28.6985 31.598 28.9775 31.2612 28.9775 30.8457C28.9775 30.0684 30.0462 29.4558 30.4214 29.3021C30.7473 29.1702 30.9232 28.7446 30.8145 28.3507C30.7057 27.9567 30.3528 27.7436 30.0265 27.8749C30.0047 27.8837 29.4964 28.0912 28.9775 28.5004V27.8363H28.9774Z" fill="#F59F00"/>
<path d="M30.2235 33.1029C30.2235 32.6874 29.9446 32.3506 29.6005 32.3506C29.2565 32.3506 28.9775 32.6874 28.9775 33.1029V33.767C28.4586 33.3578 27.9503 33.1503 27.9285 33.1415C27.6021 33.0102 27.2493 33.2232 27.1405 33.6173C27.0317 34.0116 27.2081 34.4377 27.5346 34.5691C27.8394 34.6918 28.9776 35.3132 28.9776 36.1123C28.9776 36.5278 29.2565 36.8646 29.6006 36.8646C29.9446 36.8646 30.2236 36.5278 30.2236 36.1123C30.2236 35.335 31.2923 34.7224 31.6675 34.5687C31.9934 34.4368 32.1693 34.0112 32.0606 33.6173C31.9519 33.2233 31.5989 33.0102 31.2726 33.1415C31.2508 33.1503 30.7425 33.3578 30.2236 33.767V33.1029H30.2235Z" fill="#F59F00"/>
<path d="M31.4696 38.3695C31.4696 37.954 31.1907 37.6172 30.8466 37.6172C30.5026 37.6172 30.2236 37.954 30.2236 38.3695V39.0336C29.7047 38.6244 29.1964 38.4169 29.1746 38.4081C28.848 38.2768 28.4953 38.4898 28.3866 38.8839C28.2778 39.2782 28.4542 39.7043 28.7807 39.8357C29.0855 39.9584 30.2237 40.5798 30.2237 41.3789C30.2237 41.7944 30.5026 42.1312 30.8467 42.1312C31.1907 42.1312 31.4697 41.7944 31.4697 41.3789C31.4697 40.6016 32.5384 39.989 32.9136 39.8353C33.2395 39.7034 33.4154 39.2778 33.3067 38.8839C33.1979 38.4899 32.8449 38.2768 32.5187 38.4081C32.4968 38.4169 31.9886 38.6244 31.4697 39.0336V38.3695H31.4696Z" fill="#F59F00"/>
<path d="M14.6162 23.0851C14.5074 22.6911 14.1545 22.4783 13.8281 22.6093C13.8063 22.6181 13.2981 22.8256 12.7792 23.2347V22.5707C12.7792 22.1552 12.5002 21.8184 12.1562 21.8184C11.8121 21.8184 11.5332 22.1552 11.5332 22.5707V23.2347C11.0142 22.8256 10.506 22.6181 10.4842 22.6093C10.1578 22.4782 9.80499 22.691 9.6962 23.0851C9.58741 23.4793 9.76379 23.9054 10.0902 24.0368C10.395 24.1596 11.5333 24.781 11.5333 25.5801C11.5333 25.9955 11.8122 26.3324 12.1563 26.3324C12.5003 26.3324 12.7793 25.9955 12.7793 25.5801C12.7793 24.8024 13.8489 24.1896 14.2223 24.0368C14.5486 23.9054 14.725 23.4793 14.6162 23.0851Z" fill="#F59F00"/>
<path d="M12.5825 27.8749C12.5607 27.8837 12.0525 28.0912 11.5336 28.5004V27.8363C11.5336 27.4208 11.2546 27.084 10.9106 27.084C10.5665 27.084 10.2876 27.4208 10.2876 27.8363V28.5004C9.76862 28.0912 9.26041 27.8837 9.2386 27.8749C8.91208 27.7436 8.5593 27.9566 8.45059 28.3507C8.3418 28.745 8.51819 29.1711 8.84464 29.3024C9.14944 29.4252 10.2877 30.0466 10.2877 30.8457C10.2877 31.2612 10.5666 31.598 10.9107 31.598C11.2547 31.598 11.5336 31.2612 11.5336 30.8457C11.5336 30.0681 12.6033 29.4552 12.9767 29.3024C13.303 29.1711 13.4795 28.745 13.3707 28.3507C13.2618 27.9566 12.9089 27.7436 12.5825 27.8749Z" fill="#F59F00"/>
<path d="M11.3364 33.1415C11.3146 33.1503 10.8064 33.3578 10.2875 33.767V33.1029C10.2875 32.6874 10.0085 32.3506 9.66448 32.3506C9.32043 32.3506 9.04148 32.6874 9.04148 33.1029V33.767C8.52252 33.3578 8.01432 33.1503 7.99251 33.1415C7.6659 33.0102 7.31321 33.2232 7.2045 33.6173C7.09571 34.0116 7.27209 34.4377 7.59854 34.5691C7.90334 34.6918 9.04156 35.3132 9.04156 36.1123C9.04156 36.5278 9.32051 36.8646 9.66456 36.8646C10.0086 36.8646 10.2876 36.5278 10.2876 36.1123C10.2876 35.3347 11.3572 34.7218 11.7306 34.5691C12.0569 34.4377 12.2334 34.0116 12.1246 33.6173C12.0157 33.2232 11.6627 33.0102 11.3364 33.1415Z" fill="#F59F00"/>
<path d="M10.0904 38.4081C10.0685 38.4169 9.56034 38.6244 9.04138 39.0336V38.3695C9.04138 37.954 8.76243 37.6172 8.41838 37.6172C8.07433 37.6172 7.79539 37.954 7.79539 38.3695V39.0336C7.27643 38.6244 6.76822 38.4169 6.74642 38.4081C6.41997 38.2768 6.06719 38.4898 5.9584 38.8839C5.84961 39.2782 6.026 39.7043 6.35245 39.8357C6.65717 39.9584 7.79539 40.5798 7.79539 41.3789C7.79539 41.7944 8.07433 42.1312 8.41838 42.1312C8.76243 42.1312 9.04138 41.7944 9.04138 41.3789C9.04138 40.6013 10.1111 39.9884 10.4844 39.8357C10.8108 39.7043 10.9872 39.2782 10.8784 38.8839C10.7696 38.4898 10.4166 38.2768 10.0904 38.4081Z" fill="#F59F00"/>
</svg>
