<svg width="41" height="45" viewBox="0 0 41 45" fill="none" xmlns="http://www.w3.org/2000/svg">
<path d="M32.9306 36.2466C32.917 36.191 32.8921 36.1396 32.858 36.0967C32.8239 36.0538 32.7815 36.0204 32.734 35.9992C32.6866 35.978 32.6354 35.9696 32.5846 35.9745C32.5338 35.9795 32.4847 35.9978 32.4412 36.0279L30.8012 37.1629C30.7141 37.223 30.6096 37.2416 30.5105 37.2145C30.4114 37.1875 30.3259 37.117 30.2726 37.0187L28.9695 34.6052L26.5873 30.1943C26.5864 29.7095 26.5455 29.2258 26.4651 28.7495L25.7501 24.5408L29.8946 18.7397C30.2234 18.2831 30.4326 17.7312 30.4985 17.1468C30.5644 16.5624 30.4843 15.9688 30.2672 15.4333L27.8815 9.49141C27.593 8.77586 27.1291 8.16908 26.545 7.7431C25.9609 7.31713 25.2811 7.08984 24.5863 7.08823H21.3727V6.59281C21.5722 6.48822 21.7412 6.32127 21.8597 6.11163C21.9782 5.90198 22.0414 5.65836 22.0417 5.40945V3.56391C22.3335 3.4113 22.5806 3.16741 22.754 2.86101C22.9274 2.55461 23.0198 2.19847 23.0203 1.83458V0.373107C23.0203 0.319318 23.01 0.266163 22.9902 0.217287C22.9704 0.168411 22.9414 0.12497 22.9054 0.0899426C22.8693 0.054915 22.827 0.0291289 22.7813 0.0143525C22.7356 -0.000423858 22.6877 -0.00384119 22.6407 0.00433482L19.4748 0.555628C19.085 0.621374 18.7291 0.844009 18.4725 1.18272C18.2158 1.52143 18.0756 1.95352 18.0775 2.39977V4.47679C18.0779 4.79067 18.1779 5.09394 18.3594 5.33121C18.5409 5.56848 18.7917 5.72393 19.0661 5.76918V7.08917H15.4473C15.1575 7.0922 14.8721 7.16976 14.6127 7.31599L8.62617 10.7053C8.12812 10.9871 7.70823 11.4188 7.41255 11.9529C7.11687 12.4871 6.95681 13.1031 6.94994 13.7335C6.94306 14.3638 7.08963 14.9841 7.37357 15.5264C7.65751 16.0687 8.06785 16.5119 8.55961 16.8076L15.1504 20.7714L15.7666 30.5363L11.3434 43.8908C11.3248 43.9473 11.3185 44.0079 11.3251 44.0677C11.3317 44.1275 11.351 44.1845 11.3813 44.234C11.4116 44.2835 11.4521 44.324 11.4992 44.3519C11.5463 44.3798 11.5987 44.3945 11.6519 44.3945H18.7366C18.8073 44.3945 18.8761 44.3687 18.9329 44.321C18.9897 44.2733 19.0314 44.2062 19.0519 44.1295C19.0724 44.0529 19.0706 43.9708 19.0467 43.8955C19.0229 43.8201 18.9782 43.7554 18.9194 43.711L17.1537 42.3784L20.2594 32.1515C20.563 31.1543 20.6848 30.0978 20.6175 29.0458L20.4089 25.7414H21.1154L22.1851 30.6167L20.881 43.9748C20.8751 44.0273 20.8792 44.0806 20.893 44.1312C20.9068 44.1818 20.9299 44.2285 20.9608 44.2682C20.9917 44.3079 21.0297 44.3397 21.0724 44.3615C21.115 44.3832 21.1612 44.3945 21.2079 44.3945H27.304C27.3748 44.3945 27.4436 44.3687 27.5004 44.321C27.5572 44.2733 27.5989 44.2062 27.6194 44.1295C27.6399 44.0529 27.6381 43.9708 27.6142 43.8955C27.5903 43.8201 27.5457 43.7554 27.4868 43.711L25.6724 42.3415L26.3232 33.9947L27.2376 35.6887C27.2383 35.69 27.2386 35.6914 27.2393 35.6928L28.5856 38.1862C28.6387 38.2847 28.6551 38.403 28.6312 38.5152C28.6073 38.6274 28.545 38.7243 28.4581 38.7846L26.818 39.9196C26.7745 39.9497 26.7378 39.9909 26.7107 40.0398C26.6836 40.0887 26.667 40.1441 26.662 40.2015C26.657 40.2589 26.6639 40.3169 26.6821 40.3709C26.7003 40.4248 26.7293 40.4732 26.7668 40.5123L30.2975 44.1902C30.355 44.2502 30.4296 44.2851 30.5077 44.2885L32.8821 44.3945C32.8864 44.3945 32.8903 44.3945 32.8951 44.3945C32.9579 44.3945 33.0194 44.3741 33.0724 44.3358C33.1253 44.2975 33.1675 44.2429 33.194 44.1784L34.1934 41.7377C34.2263 41.6574 34.2328 41.5664 34.2119 41.4811L32.9306 36.2466ZM27.6302 34.9851L22.5697 25.614L23.5453 26.4664C23.6429 26.551 23.7597 26.6024 23.8822 26.6148L28.1921 34.5961L27.6302 34.9851ZM19.2667 19.7849L20.4257 18.9828L21.0353 21.1848L20.6927 21.4219L20.35 21.6589L19.0552 20.2164L19.2667 19.7849ZM24.998 12.507L26.5857 16.4969L24.9974 18.6706L24.998 12.507ZM20.7664 22.2449L21.317 21.8641L21.8508 22.8527L21.8898 22.9251L21.4456 23.5326L20.7549 22.2532L20.7664 22.2449ZM29.3825 18.2708L23.9482 25.8764L21.8975 24.0846L22.5475 23.1958C22.5913 23.1359 22.6175 23.062 22.6224 22.9844C22.6273 22.9069 22.6107 22.8295 22.5749 22.7632L22.2147 22.0963C22.3103 22.0722 22.4096 22.0748 22.504 22.1039C22.5985 22.1331 22.6852 22.1878 22.7568 22.2635C22.7615 22.2685 22.7664 22.2735 22.7714 22.2782L22.7814 22.2875C22.8147 22.319 22.8532 22.3426 22.8946 22.3572C22.936 22.3717 22.9796 22.3769 23.0228 22.3723C23.0659 22.3678 23.1079 22.3537 23.1462 22.3307C23.1846 22.3078 23.2185 22.2765 23.2462 22.2387L27.2243 16.7938C27.2636 16.7401 27.2887 16.675 27.297 16.6059C27.3052 16.5368 27.2961 16.4664 27.2708 16.4029L26.3155 14.0017L28.549 12.9565L29.6673 15.7419C29.8334 16.1514 29.8947 16.6054 29.8444 17.0524C29.794 17.4995 29.634 17.9215 29.3825 18.2708ZM18.7366 4.47679C18.7367 4.32843 18.7888 4.18618 18.8815 4.08127C18.9741 3.97635 19.0998 3.91735 19.2308 3.9172C19.3555 3.9169 19.4755 3.97052 19.5665 4.06708C19.6007 4.10347 19.6415 4.13114 19.686 4.14824C19.7305 4.16534 19.7777 4.17146 19.8244 4.16621C19.8712 4.16095 19.9164 4.14443 19.9571 4.11777C19.9977 4.0911 20.0329 4.0549 20.0602 4.01159C20.1759 3.82811 20.263 3.6235 20.3176 3.40666L20.6417 3.57277C20.8597 3.6845 21.0963 3.74216 21.3356 3.74186C21.3515 3.74186 21.3669 3.73962 21.3827 3.73916V5.40945C21.3825 5.55782 21.3304 5.70007 21.2378 5.80498C21.1451 5.90989 21.0194 5.9689 20.8884 5.96904C20.7592 5.96924 20.6308 5.945 20.5086 5.89732C20.426 5.86502 20.3355 5.87119 20.2569 5.91448C20.1783 5.95777 20.1181 6.03463 20.0896 6.12816C20.061 6.22168 20.0665 6.32421 20.1047 6.41318C20.143 6.50216 20.2108 6.57029 20.2935 6.6026C20.4294 6.65551 20.5704 6.68995 20.7136 6.70519V8.02089C20.7136 8.1693 20.6615 8.31164 20.5688 8.41658C20.4761 8.52152 20.3504 8.58048 20.2193 8.58048C20.0882 8.58048 19.9625 8.52152 19.8698 8.41658C19.7771 8.31164 19.725 8.1693 19.725 8.02089V5.3908C19.725 5.33547 19.7142 5.28083 19.6932 5.23085C19.6723 5.18086 19.6418 5.13677 19.6039 5.10177C19.5661 5.06678 19.5218 5.04175 19.4744 5.02851C19.4269 5.01526 19.3775 5.01413 19.3296 5.0252C19.2971 5.03263 19.264 5.03637 19.2308 5.03639C19.0998 5.03624 18.9741 4.97723 18.8815 4.87232C18.7888 4.76741 18.7367 4.62516 18.7366 4.47679ZM14.907 7.98358C15.0756 7.8883 15.2611 7.83757 15.4496 7.8352H19.0661V8.02089C19.0661 8.36719 19.1876 8.6993 19.4039 8.94417C19.6202 9.18904 19.9135 9.32661 20.2194 9.32661C20.5253 9.32661 20.8186 9.18904 21.0349 8.94417C21.2512 8.6993 21.3727 8.36719 21.3727 8.02089V7.83436H24.5855C25.1539 7.83563 25.71 8.0215 26.1878 8.3699C26.6657 8.71831 27.0452 9.21462 27.2813 9.79993L28.2761 12.2769L26.0448 13.3215L24.9986 10.6914V10.0252C24.9986 9.92622 24.9639 9.83133 24.9021 9.76137C24.8403 9.69141 24.7564 9.6521 24.6691 9.6521C24.5817 9.6521 24.4978 9.69141 24.436 9.76137C24.3743 9.83133 24.3395 9.92622 24.3395 10.0252L24.3384 19.5728L24.1926 19.7724L21.335 19.7732L20.9284 18.3038C20.9135 18.2497 20.8878 18.2003 20.8534 18.1591C20.819 18.1179 20.7768 18.0862 20.7299 18.0663C20.6831 18.0463 20.6329 18.0387 20.583 18.0441C20.5332 18.0494 20.4851 18.0675 20.4424 18.097L19.5467 18.7168C19.5404 18.6719 19.5317 18.6274 19.5207 18.5837C19.4845 18.4415 19.4236 18.3089 19.3416 18.1937C19.2595 18.0786 19.158 17.9831 19.0429 17.9129L18.5909 17.6356C18.5769 17.4543 18.5234 17.2796 18.4352 17.1274C18.347 16.9752 18.2268 16.8501 18.0854 16.7633C17.944 16.6766 17.7858 16.6309 17.625 16.6303C17.4641 16.6298 17.3057 16.6744 17.1638 16.7602L15.7783 15.9112L15.7791 11.3051C15.7791 11.2379 15.7631 11.172 15.7328 11.1143C15.7025 11.0566 15.659 11.0092 15.6069 10.9771C15.5548 10.9451 15.496 10.9296 15.4367 10.9322C15.3775 10.9348 15.3199 10.9555 15.2702 10.9921L13.2519 12.2615L11.9284 9.6702L14.907 7.98358ZM15.12 11.9397L15.1193 15.5068L12.248 13.746L15.12 11.9397ZM7.6087 13.7763C7.6072 13.2769 7.72935 12.7869 7.96129 12.3621C8.19323 11.9373 8.52567 11.5945 8.92093 11.3727L11.3379 10.0043L12.6756 12.6236L11.4029 13.4241C11.3513 13.4566 11.3084 13.5042 11.2786 13.5619C11.2488 13.6196 11.2332 13.6853 11.2335 13.7522C11.2338 13.819 11.25 13.8846 11.2803 13.9419C11.3107 13.9993 11.3541 14.0464 11.406 14.0782L15.2918 16.4611L17.0078 17.5131C17.0563 17.5428 17.1107 17.5583 17.1659 17.5581C17.2211 17.5579 17.2753 17.542 17.3237 17.5119L17.4705 17.4204C17.5221 17.3883 17.5807 17.3733 17.6394 17.3772C17.6982 17.381 17.7548 17.4036 17.8028 17.4422C17.8508 17.4809 17.8881 17.534 17.9106 17.5956C17.9331 17.6572 17.9398 17.7248 17.9299 17.7905C17.9181 17.8674 17.928 17.9466 17.9581 18.0169C17.9882 18.0872 18.037 18.145 18.0977 18.1822L18.7286 18.5692C18.7668 18.5928 18.8006 18.6247 18.8279 18.6631C18.8552 18.7015 18.8756 18.7456 18.8878 18.7929C18.8999 18.8403 18.9037 18.8899 18.8989 18.9389C18.8941 18.9879 18.8807 19.0353 18.8596 19.0785L17.8495 21.1361C17.808 21.222 17.7381 21.2859 17.6551 21.3137C17.5721 21.3414 17.4828 21.3309 17.4066 21.2843L8.8687 16.1487C8.48787 15.9205 8.16927 15.579 7.94723 15.1609C7.72519 14.7429 7.60815 14.2641 7.6087 13.7763Z" fill="#F59F00"/>
<path d="M10.4984 43.6481H8.85084V42.0279L9.37757 41.5919C9.93598 41.1272 10.4075 40.5419 10.7651 39.8697C11.1226 39.1976 11.359 38.4519 11.4605 37.6758L11.4835 37.4973C11.4923 37.4288 11.4841 37.3588 11.4598 37.2952C11.4355 37.2316 11.396 37.177 11.3458 37.1374C11.2955 37.0978 11.2366 37.0748 11.1755 37.071C11.1144 37.0673 11.0535 37.0828 10.9998 37.1159C10.0773 37.6857 9.32827 38.5575 8.85084 39.6173V34.4566L10.0557 32.8199C10.2 32.6235 10.3071 32.3956 10.3706 32.1505C10.4341 31.9053 10.4526 31.648 10.425 31.3945L10.1664 29.052C10.1563 28.9619 10.1176 28.8789 10.0574 28.8188C9.99717 28.7587 9.91966 28.7256 9.8394 28.7256H7.20324C7.12298 28.7256 7.04547 28.7587 6.98527 28.8188C6.92507 28.8789 6.88631 28.9619 6.87628 29.052L6.61769 31.3937C6.58994 31.6474 6.60839 31.9048 6.67189 32.1501C6.73539 32.3954 6.8426 32.6234 6.98691 32.8199L8.1918 34.4566V36.5795C7.92072 36.028 7.57325 35.5293 7.16263 35.1024C7.11756 35.0556 7.06185 35.0238 7.00175 35.0108C6.94165 34.9978 6.87953 35.0039 6.82235 35.0286C6.76516 35.0533 6.71518 35.0955 6.678 35.1505C6.64082 35.2056 6.61791 35.2712 6.61184 35.3402L6.59602 35.5197C6.52905 36.3006 6.59934 37.0888 6.80283 37.8388C7.00632 38.5888 7.33899 39.2858 7.78163 39.8895L8.1918 40.4459V43.6481H3.57853V39.0434L4.10527 38.6074C4.66367 38.1427 5.13524 37.5574 5.49276 36.8852C5.85027 36.2131 6.08665 35.4674 6.18824 34.6913L6.21123 34.5128C6.22005 34.4443 6.21183 34.3743 6.1875 34.3107C6.16316 34.2471 6.12367 34.1925 6.07345 34.1529C6.02323 34.1133 5.96427 34.0903 5.90316 34.0865C5.84206 34.0827 5.78123 34.0983 5.72749 34.1314C4.80499 34.7012 4.05597 35.573 3.57853 36.6328V34.4566L4.78342 32.8199C4.92765 32.6235 5.03481 32.3956 5.09831 32.1505C5.16181 31.9053 5.1803 31.648 5.15265 31.3945L4.89406 29.052C4.88402 28.9619 4.84527 28.8789 4.78507 28.8188C4.72487 28.7587 4.64736 28.7256 4.56709 28.7256H1.93094C1.85067 28.7256 1.77317 28.7587 1.71296 28.8188C1.65276 28.8789 1.61401 28.9619 1.60397 29.052L1.34538 31.3937C1.31764 31.6474 1.33608 31.9048 1.39958 32.1501C1.46309 32.3954 1.5703 32.6234 1.71461 32.8199L2.9195 34.4566V36.5795C2.64842 36.028 2.30095 35.5293 1.89033 35.1024C1.84526 35.0556 1.78955 35.0238 1.72945 35.0108C1.66934 34.9978 1.60722 35.0039 1.55004 35.0286C1.49286 35.0533 1.44288 35.0955 1.4057 35.1505C1.36852 35.2056 1.34561 35.2712 1.33954 35.3402L1.32372 35.5197C1.25675 36.3006 1.32703 37.0888 1.53053 37.8388C1.73402 38.5888 2.06668 39.2858 2.50933 39.8895L2.9195 40.4459V43.6481H1.2719C1.18451 43.6481 1.10069 43.6874 1.0389 43.7574C0.9771 43.8273 0.942383 43.9222 0.942383 44.0211C0.942383 44.1201 0.9771 44.215 1.0389 44.2849C1.10069 44.3549 1.18451 44.3942 1.2719 44.3942H10.4984C10.5858 44.3942 10.6696 44.3549 10.7314 44.2849C10.7932 44.215 10.828 44.1201 10.828 44.0211C10.828 43.9222 10.7932 43.8273 10.7314 43.7574C10.6696 43.6874 10.5858 43.6481 10.4984 43.6481ZM9.57578 29.7189L9.77094 31.4866C9.77923 31.5621 9.78067 31.6384 9.77522 31.7142H8.45303C8.59456 30.9139 8.99497 30.2023 9.57578 29.7189ZM7.2717 31.4862L7.49413 29.4717H8.81649C8.2685 30.0741 7.90666 30.8605 7.78468 31.7142H7.26742C7.26195 31.6382 7.26338 31.5619 7.2717 31.4862ZM4.30348 29.7189L4.49863 31.4862C4.50693 31.5617 4.50836 31.638 4.50292 31.7138H3.18072C3.32234 30.9137 3.72273 30.2022 4.30348 29.7189ZM1.9994 31.4862L2.22182 29.4717H3.54418C2.99619 30.0741 2.63436 30.8605 2.51238 31.7142H1.99511C1.98965 31.6382 1.99108 31.5619 1.9994 31.4862Z" fill="#F59F00"/>
<path d="M38.7327 40.7295C38.6179 40.5182 38.4667 40.3352 38.288 40.1916C38.1093 40.0479 37.9069 39.9465 37.6928 39.8934C37.4788 39.8403 37.2574 39.8366 37.0421 39.8825C36.8267 39.9284 36.6218 40.023 36.4394 40.1606L36.2368 40.3135C36.0524 40.4523 35.8964 40.634 35.779 40.8464C35.6616 41.0589 35.5855 41.2973 35.5559 41.5456C35.1536 41.7789 34.8162 42.1338 34.581 42.5708C34.3459 43.0079 34.2222 43.5101 34.2236 44.0218C34.2236 44.1208 34.2584 44.2156 34.3202 44.2856C34.382 44.3556 34.4658 44.3949 34.5532 44.3949H40.4845C40.5719 44.3949 40.6557 44.3556 40.7175 44.2856C40.7793 44.2156 40.814 44.1208 40.814 44.0218C40.8145 43.2956 40.614 42.5875 40.2407 41.997C39.8674 41.4065 39.34 40.9632 38.7327 40.7295Z" fill="#F59F00"/>
</svg>
