<svg width="39" height="38" viewBox="0 0 39 38" fill="none" xmlns="http://www.w3.org/2000/svg">
<path d="M27.313 22.1747C26.2197 24.7886 25.5597 24.9274 25.5597 24.9274C24.0272 25.654 22.5463 26.5282 21.1318 27.5413C19.4075 27.6107 16.2744 25.3067 16.2744 25.3067C16.7054 24.8239 18.9476 23.7924 18.9476 23.7924C22.1102 22.9668 22.0807 22.2106 22.0807 22.2106C22.1101 19.1827 19.781 20.4899 19.781 20.4899C18.4282 21.3155 17.0783 21.4185 14.0317 21.3156C12.1242 21.3079 10.2705 22.0716 8.77139 23.4831C6.93162 24.0665 0.837402 32.3586 0.837402 32.3586L5.78225 37.428L8.48391 32.4962C8.48391 32.4962 9.49078 29.9852 12.2524 31.5671C15.0139 33.149 16.8508 32.9443 18.863 33.6311C20.8753 34.318 21.8232 33.2183 21.8232 33.2183L26.1071 28.9532C28.0044 27.2325 28.4638 25.72 28.4638 25.72C30.1316 20.0089 31.0505 18.2894 31.0505 18.2894C29.4113 17.4569 28.4073 19.5556 27.313 22.1747Z" fill="#F59F00"/>
<path d="M38.3873 1.61496C36.7522 0.545116 34.917 -0.0104938 33.0535 0.000150097C31.4523 0.00119344 29.8711 0.426722 28.4236 1.24612C26.1133 2.54469 24.691 4.18207 24.1938 6.11547C23.8983 7.27085 23.9496 8.51346 24.3388 9.62839C23.2757 11.197 22.6916 13.1528 22.6831 15.1725V15.5148C22.2037 14.9046 21.6773 14.3498 21.111 13.8577C21.334 12.9577 21.2918 11.9932 20.9916 11.1259C20.4819 9.65792 19.2712 8.50619 17.3947 7.70311C16.4741 7.30562 15.5032 7.10085 14.5244 7.09776C12.7976 7.09648 11.1103 7.71583 9.68104 8.87561C9.63386 8.91773 9.5963 8.97345 9.57182 9.03751C9.54733 9.10157 9.53672 9.17193 9.54094 9.24219C9.54477 9.31245 9.56343 9.3804 9.5952 9.43966C9.62698 9.49893 9.67081 9.54759 9.72259 9.58103C11.0285 10.4654 12.2518 11.5142 13.3717 12.7095C13.4731 12.8251 15.9096 15.5379 18.418 15.5379C19.2572 15.5434 20.0713 15.1955 20.7177 14.555C21.4802 15.1855 22.1454 15.9698 22.6836 16.8729V24.4111C22.6144 24.456 22.5431 24.4959 22.47 24.5307C21.7207 24.858 21.1255 24.4272 20.4684 24.133C20.0751 24.2746 19.6418 24.4111 19.1403 24.5441C18.6339 24.7753 18.0774 25.0574 17.6261 25.3049C18.6407 25.9409 20.036 26.6925 20.9511 26.7445C22.3503 25.7631 23.8093 24.9091 25.3157 24.1896L25.3669 24.1648C25.7277 23.8091 26.0246 23.3697 26.2399 22.8732C25.7286 22.6532 25.172 22.6347 24.6514 22.8205C24.1791 23.0514 23.7497 23.392 23.3879 23.8225V15.1708C23.4005 13.4103 23.9015 11.7048 24.8122 10.3222C25.5651 10.9487 26.4597 11.2856 27.3767 11.2878C30.7586 11.2878 33.8724 7.08966 34.0038 6.91158C35.3288 5.19753 36.8037 3.6587 38.4032 2.32151C38.452 2.28197 38.4917 2.22838 38.5187 2.16568C38.5457 2.10297 38.5591 2.03314 38.5577 1.96262C38.5562 1.89211 38.54 1.82316 38.5105 1.76211C38.4809 1.70106 38.4391 1.6499 38.3887 1.61327L38.3873 1.61496Z" fill="#F59F00"/>
</svg>
